<svg width="100" height="100" viewBox="0 0 100 100" fill="none" xmlns="http://www.w3.org/2000/svg">
<rect width="100" height="100" rx="8" fill="url(#paint0_linear_35_58)"/>
<path d="M63.8414 23.8925C64.1843 24.0342 64.4774 24.2745 64.6837 24.5829C64.89 24.8913 65.0001 25.2539 65.0002 25.625V35H74.3752C74.7465 34.9993 75.1096 35.1089 75.4186 35.3149C75.7276 35.5209 75.9684 35.814 76.1106 36.157C76.2528 36.5 76.2899 36.8775 76.2173 37.2417C76.1447 37.6058 75.9656 37.9402 75.7027 38.2025L68.2027 45.7025C68.0282 45.8765 67.8212 46.0144 67.5934 46.1083C67.3656 46.2023 67.1216 46.2504 66.8752 46.25H56.4014L53.6264 49.0287C53.7747 49.5847 53.7932 50.1672 53.6805 50.7315C53.5678 51.2957 53.3269 51.8264 52.9765 52.2828C52.626 52.7391 52.1753 53.1087 51.6592 53.3631C51.1432 53.6175 50.5755 53.7499 50.0002 53.75C49.0056 53.75 48.0518 53.3549 47.3485 52.6516C46.6452 51.9484 46.2502 50.9945 46.2502 50L46.2539 49.8275C46.2796 49.2673 46.4306 48.72 46.6958 48.226C46.9611 47.7319 47.3337 47.3036 47.7863 46.9725C48.2389 46.6415 48.7601 46.4162 49.3113 46.3132C49.8625 46.2103 50.4298 46.2322 50.9714 46.3775L53.7502 43.5987V33.125C53.7497 32.8786 53.7978 32.6345 53.8918 32.4067C53.9857 32.179 54.1237 31.9719 54.2977 31.7975L61.7977 24.2975C62.0601 24.0354 62.3943 23.8571 62.7581 23.785C63.1219 23.7129 63.4989 23.7503 63.8414 23.8925ZM66.0989 42.5L69.8489 38.75H63.1252C62.6279 38.75 62.151 38.5524 61.7993 38.2008C61.4477 37.8492 61.2502 37.3723 61.2502 36.875V30.1512L57.5002 33.9012V42.5H66.0989ZM72.2939 46.91C72.9409 51.5793 72.1051 56.3338 69.9044 60.5025C67.7036 64.6711 64.2492 68.0433 60.0288 70.143C55.8083 72.2426 51.035 72.9637 46.3827 72.2044C41.7303 71.4451 37.4339 69.2438 34.1001 65.9112C30.7662 62.5787 28.5632 58.2832 27.8021 53.6311C27.041 48.9791 27.7602 44.2055 29.8582 39.9842C31.9562 35.7629 35.327 32.3072 39.4948 30.1048C43.6626 27.9025 48.4169 27.0648 53.0864 27.71L51.6502 29.1462C51.0557 29.7407 50.6021 30.4608 50.3227 31.2537L50.0002 31.25C46.2781 31.2505 42.6405 32.3588 39.5505 34.4337C36.4605 36.5086 34.0579 39.4562 32.6487 42.9011C31.2395 46.3461 30.8875 50.1325 31.6375 53.7782C32.3875 57.4238 34.2056 60.7638 36.8602 63.3727C39.5148 65.9817 42.8858 67.7415 46.5439 68.4282C50.2021 69.1148 53.9818 68.6972 57.4018 67.2284C60.8217 65.7597 63.7272 63.3064 65.7482 60.1808C67.7692 57.0553 68.8142 53.3989 68.7502 49.6775C69.54 49.3981 70.2575 48.9459 70.8502 48.3537L72.2902 46.91H72.2939ZM50.0002 36.875C47.4043 36.875 44.8667 37.6447 42.7083 39.0869C40.5499 40.5291 38.8676 42.579 37.8742 44.9773C36.8808 47.3755 36.6209 50.0145 37.1274 52.5605C37.6338 55.1065 38.8838 57.4452 40.7194 59.2807C42.5549 61.1163 44.8936 62.3663 47.4396 62.8728C49.9856 63.3792 52.6246 63.1193 55.0229 62.1259C57.4212 61.1325 59.471 59.4502 60.9132 57.2918C62.3554 55.1334 63.1252 52.5959 63.1252 50H59.3752C59.3752 51.8542 58.8253 53.6667 57.7952 55.2084C56.765 56.7502 55.3009 57.9518 53.5878 58.6613C51.8748 59.3709 49.9898 59.5566 48.1712 59.1948C46.3526 58.8331 44.6821 57.9402 43.371 56.6291C42.0599 55.318 41.167 53.6475 40.8053 51.8289C40.4436 50.0104 40.6292 48.1254 41.3388 46.4123C42.0484 44.6993 43.25 43.2351 44.7917 42.2049C46.3334 41.1748 48.146 40.625 50.0002 40.625V36.875Z" fill="white"/>
<defs>
<linearGradient id="paint0_linear_35_58" x1="50" y1="0" x2="50" y2="100" gradientUnits="userSpaceOnUse">
<stop stop-color="#1AC9FB"/>
<stop offset="1" stop-color="#407BFF"/>
</linearGradient>
</defs>
</svg>
