<svg width="100" height="100" viewBox="0 0 100 100" fill="none" xmlns="http://www.w3.org/2000/svg">
<path d="M49.7125 8.57504C50.2285 7.92938 50.8674 7.39248 51.5923 6.99541C52.3172 6.59834 53.1137 6.34899 53.9356 6.2618C54.7575 6.17461 55.5885 6.25131 56.3806 6.48746C57.1727 6.7236 57.91 7.11451 58.55 7.63754L78.9375 24.2875C80.0587 25.203 80.8274 26.4792 81.1124 27.8983C81.3973 29.3174 81.1809 30.7915 80.5 32.0688C78.7176 31.524 76.8638 31.2481 75 31.25H73.125L74.9875 29.125L64.25 20.3563L55.3937 31.2563H47.3375L59.4062 16.4063L54.5937 12.475L39.6062 31.25H31.6063L49.7125 8.57504ZM65.625 62.5C64.7962 62.5 64.0013 62.8293 63.4153 63.4153C62.8292 64.0014 62.5 64.7962 62.5 65.625C62.5 66.4538 62.8292 67.2487 63.4153 67.8348C64.0013 68.4208 64.7962 68.75 65.625 68.75H71.875C72.7038 68.75 73.4987 68.4208 74.0847 67.8348C74.6708 67.2487 75 66.4538 75 65.625C75 64.7962 74.6708 64.0014 74.0847 63.4153C73.4987 62.8293 72.7038 62.5 71.875 62.5H65.625ZM18.75 34.375C18.75 33.5462 19.0792 32.7514 19.6653 32.1653C20.2513 31.5793 21.0462 31.25 21.875 31.25H25.3625L30.3313 25H21.875C19.3886 25 17.004 25.9878 15.2459 27.7459C13.4877 29.5041 12.5 31.8886 12.5 34.375V71.875C12.5 76.0191 14.1462 79.9933 17.0765 82.9236C20.0067 85.8538 23.981 87.5 28.125 87.5H75C78.3152 87.5 81.4946 86.1831 83.8388 83.8389C86.183 81.4947 87.5 78.3152 87.5 75V50C87.5 46.6848 86.183 43.5054 83.8388 41.1612C81.4946 38.817 78.3152 37.5 75 37.5H21.875C21.0462 37.5 20.2513 37.1708 19.6653 36.5848C19.0792 35.9987 18.75 35.2038 18.75 34.375ZM18.75 71.875V43.2188C19.725 43.5625 20.7812 43.75 21.875 43.75H75C76.6576 43.75 78.2473 44.4085 79.4194 45.5806C80.5915 46.7527 81.25 48.3424 81.25 50V75C81.25 76.6576 80.5915 78.2474 79.4194 79.4195C78.2473 80.5916 76.6576 81.25 75 81.25H28.125C25.6386 81.25 23.254 80.2623 21.4959 78.5042C19.7377 76.746 18.75 74.3615 18.75 71.875Z" fill="white"/>
</svg>
