<svg width="100" height="100" viewBox="0 0 100 100" fill="none" xmlns="http://www.w3.org/2000/svg">
<path d="M23.4689 81.25C21.9492 81.2527 20.4359 81.053 18.9689 80.6563C14.5655 79.4005 10.8296 76.4689 8.56287 72.4904C6.2961 68.5119 5.67898 63.8033 6.84392 59.375L14.1252 31.75C14.6922 29.5143 15.7003 27.4145 17.0902 25.5738C18.4801 23.7331 20.2238 22.1887 22.2189 21.0313C24.1615 19.9061 26.308 19.1776 28.5342 18.8879C30.7603 18.5983 33.0218 18.7532 35.1877 19.3438C37.49 19.9831 39.6344 21.0938 41.4849 22.6054C43.3354 24.117 44.8517 25.9966 45.9377 28.125H54.0627C55.1439 25.9932 56.6587 24.1109 58.5099 22.5987C60.3612 21.0865 62.5079 19.9778 64.8127 19.3438C66.9785 18.7532 69.24 18.5983 71.4661 18.8879C73.6923 19.1776 75.8388 19.9061 77.7814 21.0313C79.7668 22.1857 81.5041 23.7216 82.8932 25.5506C84.2823 27.3795 85.2958 29.4652 85.8752 31.6875L93.1564 59.375C94.3388 63.8163 93.7265 68.5443 91.452 72.5379C89.1775 76.5315 85.4232 79.4701 81.0002 80.7188C78.8343 81.3093 76.5728 81.4643 74.3467 81.1746C72.1205 80.885 69.974 80.1564 68.0314 79.0313C66.0428 77.8809 64.3029 76.3463 62.9133 74.5168C61.5238 72.6872 60.5122 70.5994 59.9377 68.375L59.3752 65.625H40.6252L39.9064 68.3125C39.3319 70.5369 38.3203 72.6247 36.9307 74.4543C35.5412 76.2838 33.8013 77.8184 31.8127 78.9688C29.2735 80.4333 26.4 81.2189 23.4689 81.25ZM30.7189 25C28.8331 25.0064 26.9812 25.5017 25.3439 26.4375C22.7778 27.9431 20.9126 30.4038 20.1564 33.2813L12.8752 60.9063C12.1133 63.7523 12.4982 66.7837 13.9474 69.349C15.3966 71.9142 17.7943 73.8086 20.6252 74.625C21.9924 74.998 23.42 75.0961 24.8253 74.9137C26.2307 74.7313 27.5859 74.2721 28.8127 73.5625C30.0899 72.8252 31.2067 71.8399 32.0976 70.6646C32.9885 69.4893 33.6353 68.1477 34.0002 66.7188L35.9377 59.375H64.0627L65.9689 66.7188C66.3402 68.145 66.9896 69.4838 67.8799 70.6582C68.7701 71.8327 69.8836 72.8197 71.1564 73.5625C72.3892 74.2714 73.7497 74.7301 75.16 74.9124C76.5703 75.0948 78.0027 74.9971 79.3752 74.625C82.2095 73.8162 84.6101 71.9216 86.0554 69.3528C87.5008 66.784 87.8739 63.7487 87.0939 60.9063L79.8127 33.2813C79.4499 31.8556 78.8072 30.5164 77.922 29.3415C77.0368 28.1666 75.9267 27.1794 74.6564 26.4375C73.4237 25.7287 72.0632 25.27 70.6529 25.0876C69.2426 24.9053 67.8102 25.003 66.4377 25.375C64.7403 25.8589 63.1829 26.7407 61.8948 27.9473C60.6067 29.1539 59.625 30.6504 59.0314 32.3125L58.2814 34.375H41.7189L40.9689 32.3125C40.37 30.6482 39.3829 29.1506 38.0894 27.9441C36.7959 26.7376 35.2334 25.8569 33.5314 25.375C32.6143 25.1277 31.6688 25.0017 30.7189 25Z" fill="white"/>
<path d="M31.25 50C30.0139 50 28.8055 49.6334 27.7777 48.9467C26.7499 48.2599 25.9488 47.2838 25.4758 46.1418C25.0027 44.9997 24.8789 43.7431 25.1201 42.5307C25.3613 41.3183 25.9565 40.2047 26.8306 39.3306C27.7047 38.4565 28.8183 37.8613 30.0307 37.6201C31.2431 37.3789 32.4997 37.5027 33.6418 37.9758C34.7838 38.4488 35.7599 39.2499 36.4467 40.2777C37.1334 41.3055 37.5 42.5139 37.5 43.75C37.5 45.4076 36.8415 46.9973 35.6694 48.1694C34.4973 49.3415 32.9076 50 31.25 50Z" fill="white"/>
<path d="M68.75 40.625C70.4759 40.625 71.875 39.2259 71.875 37.5C71.875 35.7741 70.4759 34.375 68.75 34.375C67.0241 34.375 65.625 35.7741 65.625 37.5C65.625 39.2259 67.0241 40.625 68.75 40.625Z" fill="white"/>
<path d="M68.75 53.125C70.4759 53.125 71.875 51.7259 71.875 50C71.875 48.2741 70.4759 46.875 68.75 46.875C67.0241 46.875 65.625 48.2741 65.625 50C65.625 51.7259 67.0241 53.125 68.75 53.125Z" fill="white"/>
<path d="M62.5 46.875C64.2259 46.875 65.625 45.4759 65.625 43.75C65.625 42.0241 64.2259 40.625 62.5 40.625C60.7741 40.625 59.375 42.0241 59.375 43.75C59.375 45.4759 60.7741 46.875 62.5 46.875Z" fill="white"/>
<path d="M75 46.875C76.7259 46.875 78.125 45.4759 78.125 43.75C78.125 42.0241 76.7259 40.625 75 40.625C73.2741 40.625 71.875 42.0241 71.875 43.75C71.875 45.4759 73.2741 46.875 75 46.875Z" fill="white"/>
</svg>
