<svg width="100" height="100" viewBox="0 0 100 100" fill="none" xmlns="http://www.w3.org/2000/svg">
<rect width="100" height="100" rx="8" fill="url(#paint0_linear_35_57)"/>
<path d="M47.917 45.5708C45.9531 45.0638 44.2416 43.8579 43.1033 42.1792C41.9649 40.5005 41.4779 38.4642 41.7334 36.4521C41.989 34.44 42.9696 32.5901 44.4915 31.2493C46.0134 29.9085 47.9721 29.1688 50.0003 29.1688C52.0286 29.1688 53.9873 29.9085 55.5092 31.2493C57.031 32.5901 58.0117 34.44 58.2673 36.4521C58.5228 38.4642 58.0358 40.5005 56.8974 42.1792C55.7591 43.8579 54.0475 45.0638 52.0837 45.5708V50H60.417C61.5221 50 62.5819 50.439 63.3633 51.2204C64.1447 52.0018 64.5837 53.0616 64.5837 54.1667V58.5958C66.5475 59.1029 68.2591 60.3088 69.3974 61.9875C70.5358 63.6662 71.0228 65.7025 70.7673 67.7146C70.5117 69.7267 69.531 71.5765 68.0092 72.9174C66.4873 74.2582 64.5286 74.9979 62.5003 74.9979C60.4721 74.9979 58.5134 74.2582 56.9915 72.9174C55.4696 71.5765 54.489 69.7267 54.2334 67.7146C53.9779 65.7025 54.4649 63.6662 55.6033 61.9875C56.7416 60.3088 58.4531 59.1029 60.417 58.5958V54.1667H39.5837V58.5958C41.5475 59.1029 43.2591 60.3088 44.3974 61.9875C45.5358 63.6662 46.0228 65.7025 45.7673 67.7146C45.5117 69.7267 44.531 71.5765 43.0092 72.9174C41.4873 74.2582 39.5286 74.9979 37.5003 74.9979C35.4721 74.9979 33.5134 74.2582 31.9915 72.9174C30.4696 71.5765 29.489 69.7267 29.2334 67.7146C28.9779 65.7025 29.4649 63.6662 30.6033 61.9875C31.7416 60.3088 33.4531 59.1029 35.417 58.5958V54.1667C35.417 53.0616 35.856 52.0018 36.6374 51.2204C37.4188 50.439 38.4786 50 39.5837 50H47.917V45.5708ZM50.0003 41.6667C51.1054 41.6667 52.1652 41.2277 52.9466 40.4463C53.728 39.6649 54.167 38.6051 54.167 37.5C54.167 36.3949 53.728 35.3351 52.9466 34.5537C52.1652 33.7723 51.1054 33.3333 50.0003 33.3333C48.8953 33.3333 47.8355 33.7723 47.0541 34.5537C46.2727 35.3351 45.8337 36.3949 45.8337 37.5C45.8337 38.6051 46.2727 39.6649 47.0541 40.4463C47.8355 41.2277 48.8953 41.6667 50.0003 41.6667ZM37.5003 70.8333C38.6054 70.8333 39.6652 70.3944 40.4466 69.613C41.228 68.8316 41.667 67.7717 41.667 66.6667C41.667 65.5616 41.228 64.5018 40.4466 63.7204C39.6652 62.939 38.6054 62.5 37.5003 62.5C36.3953 62.5 35.3355 62.939 34.5541 63.7204C33.7727 64.5018 33.3337 65.5616 33.3337 66.6667C33.3337 67.7717 33.7727 68.8316 34.5541 69.613C35.3355 70.3944 36.3953 70.8333 37.5003 70.8333ZM58.3337 66.6667C58.3337 67.7717 58.7727 68.8316 59.5541 69.613C60.3355 70.3944 61.3953 70.8333 62.5003 70.8333C63.6054 70.8333 64.6652 70.3944 65.4466 69.613C66.228 68.8316 66.667 67.7717 66.667 66.6667C66.667 65.5616 66.228 64.5018 65.4466 63.7204C64.6652 62.939 63.6054 62.5 62.5003 62.5C61.3953 62.5 60.3355 62.939 59.5541 63.7204C58.7727 64.5018 58.3337 65.5616 58.3337 66.6667Z" fill="white"/>
<defs>
<linearGradient id="paint0_linear_35_57" x1="50" y1="0" x2="50" y2="100" gradientUnits="userSpaceOnUse">
<stop stop-color="#1AC9FB"/>
<stop offset="1" stop-color="#407BFF"/>
</linearGradient>
</defs>
</svg>
