<svg width="60" height="60" viewBox="0 0 60 60" fill="none" xmlns="http://www.w3.org/2000/svg">
<rect width="60" height="60" rx="30" fill="url(#paint0_linear_35_47)"/>
<path d="M36.667 30H40.0003V36.6667H36.667V30Z" fill="white"/>
<path d="M43.333 21.6667V18.3333C43.333 16.495 41.838 15 39.9997 15H18.333C15.5763 15 13.333 17.2433 13.333 20V40C13.333 43.6683 16.323 45 18.333 45H43.333C45.1713 45 46.6663 43.505 46.6663 41.6667V25C46.6663 23.1617 45.1713 21.6667 43.333 21.6667ZM18.333 18.3333H39.9997V21.6667H18.333C17.9039 21.6475 17.4987 21.4635 17.2018 21.153C16.9049 20.8426 16.7392 20.4296 16.7392 20C16.7392 19.5704 16.9049 19.1574 17.2018 18.847C17.4987 18.5365 17.9039 18.3525 18.333 18.3333ZM43.333 41.6667H18.353C17.583 41.6467 16.6663 41.3417 16.6663 40V24.6917C17.1897 24.88 17.7447 25 18.333 25H43.333V41.6667Z" fill="white"/>
<defs>
<linearGradient id="paint0_linear_35_47" x1="30" y1="0" x2="30" y2="60" gradientUnits="userSpaceOnUse">
<stop stop-color="#1AC9FB"/>
<stop offset="1" stop-color="#407BFF"/>
</linearGradient>
</defs>
</svg>
