<svg width="100" height="100" viewBox="0 0 100 100" fill="none" xmlns="http://www.w3.org/2000/svg">
<path d="M50.0002 25C64.7377 25 78.4877 30.6375 88.721 40.8708L94.6127 34.9791C82.8085 23.1708 66.9627 16.6666 50.0002 16.6666C33.0377 16.6708 17.1919 23.1708 5.3877 34.9791L11.2794 40.8708C21.5127 30.6375 35.2627 25 50.0002 25ZM73.6294 59.6125C60.821 46.8041 39.1794 46.8041 26.371 59.6125L32.2627 65.5041C41.8752 55.8916 58.1252 55.8916 67.7377 65.5041L73.6294 59.6125Z" fill="white"/>
<path d="M85.1538 47.0541C66.1038 27.9958 33.8996 27.9958 14.8496 47.0541L20.7413 52.9458C36.6038 37.0833 63.3996 37.0833 79.2621 52.9458L85.1538 47.0541Z" fill="white"/>
<path d="M50.0003 83.3333C54.6027 83.3333 58.3337 79.6023 58.3337 75C58.3337 70.3976 54.6027 66.6666 50.0003 66.6666C45.398 66.6666 41.667 70.3976 41.667 75C41.667 79.6023 45.398 83.3333 50.0003 83.3333Z" fill="white"/>
</svg>
