<svg width="256" height="367" viewBox="0 0 256 367" fill="none" xmlns="http://www.w3.org/2000/svg">
<g clip-path="url(#clip0_74_10)">
<path d="M70.585 271.865C81.1992 285.391 90.8595 299.64 99.496 314.507C106.87 328.489 109.944 337.97 115.333 354.817C118.638 364.125 121.625 366.903 128.047 366.903C135.045 366.903 138.22 362.177 140.673 354.868C145.767 338.958 149.764 326.816 156.07 315.343C168.444 293.193 183.82 273.51 198.928 254.593C203.018 249.239 229.462 218.048 241.367 193.437C241.367 193.437 255.999 166.402 255.999 128.645C255.999 93.327 241.569 68.832 241.569 68.832L200.024 79.958L174.794 146.409L168.552 155.572L167.304 157.232L165.644 159.31L162.73 162.629L158.566 166.792L136.099 185.096L79.929 217.528L70.585 271.865V271.865Z" fill="#34A853"/>
<path d="M12.6118 188.892C26.3208 220.205 52.7568 247.731 70.6428 271.887L165.644 159.353C165.644 159.353 152.26 176.857 127.982 176.857C100.939 176.857 79.0918 155.262 79.0918 128.032C79.0918 109.359 90.3258 96.531 90.3258 96.531L25.8368 113.811L12.6118 188.891V188.892Z" fill="#FBBC04"/>
<path d="M166.705 5.78689C198.257 15.9599 225.263 37.3169 241.598 68.8099L165.673 159.288C165.673 159.288 176.907 146.228 176.907 127.671C176.907 99.8069 153.444 78.9909 128.097 78.9909C104.128 78.9909 90.3618 96.4659 90.3618 96.4659V39.4659L166.705 5.78589V5.78689Z" fill="#4285F4"/>
<path d="M30.0151 45.765C48.8601 23.218 82.0201 0 127.736 0C149.916 0 166.626 5.823 166.626 5.823L90.2901 96.516H36.2051L30.0151 45.766V45.765Z" fill="#1A73E8"/>
<path d="M12.612 188.892C12.612 188.892 0 164.194 0 128.414C0 94.5969 13.146 65.0369 30.015 45.7649L90.333 96.5239L12.612 188.892V188.892Z" fill="#EA4335"/>
</g>
<defs>
<clipPath id="clip0_74_10">
<rect width="256" height="367" fill="white"/>
</clipPath>
</defs>
</svg>
