<svg width="100" height="100" viewBox="0 0 100 100" fill="none" xmlns="http://www.w3.org/2000/svg">
<path d="M8.33301 20.8333C8.33301 19.7282 8.77199 18.6684 9.5534 17.887C10.3348 17.1056 11.3946 16.6666 12.4997 16.6666H87.4997C88.6047 16.6666 89.6646 17.1056 90.446 17.887C91.2274 18.6684 91.6663 19.7282 91.6663 20.8333V79.1666C91.6663 80.2717 91.2274 81.3315 90.446 82.1129C89.6646 82.8943 88.6047 83.3333 87.4997 83.3333H12.4997C11.3946 83.3333 10.3348 82.8943 9.5534 82.1129C8.77199 81.3315 8.33301 80.2717 8.33301 79.1666V20.8333Z" stroke="white" stroke-width="4" stroke-linejoin="round"/>
<path d="M8.33301 33.3333H91.6663" stroke="white" stroke-width="4" stroke-linecap="square" stroke-linejoin="round"/>
<path d="M56.2497 66.6666H74.9997M91.6663 20.8333V54.1666M8.33301 20.8333V54.1666" stroke="white" stroke-width="4" stroke-linecap="round" stroke-linejoin="round"/>
</svg>
