<svg width="60" height="60" viewBox="0 0 60 60" fill="none" xmlns="http://www.w3.org/2000/svg">
<rect width="60" height="60" rx="30" fill="url(#paint0_linear_35_50)"/>
<path d="M43.2303 23.3333H45.0003C45.8844 23.3333 46.7322 23.6845 47.3573 24.3096C47.9825 24.9348 48.3337 25.7826 48.3337 26.6667V33.3333C48.3337 34.2174 47.9825 35.0652 47.3573 35.6904C46.7322 36.3155 45.8844 36.6667 45.0003 36.6667H43.2303C42.824 39.8888 41.2558 42.852 38.8199 45C36.384 47.148 33.248 48.3333 30.0003 48.3333V45C32.6525 45 35.196 43.9464 37.0714 42.0711C38.9468 40.1957 40.0003 37.6522 40.0003 35V25C40.0003 22.3478 38.9468 19.8043 37.0714 17.9289C35.196 16.0536 32.6525 15 30.0003 15C27.3482 15 24.8046 16.0536 22.9293 17.9289C21.0539 19.8043 20.0003 22.3478 20.0003 25V36.6667H15.0003C14.1163 36.6667 13.2684 36.3155 12.6433 35.6904C12.0182 35.0652 11.667 34.2174 11.667 33.3333V26.6667C11.667 25.7826 12.0182 24.9348 12.6433 24.3096C13.2684 23.6845 14.1163 23.3333 15.0003 23.3333H16.7703C17.177 20.1115 18.7455 17.1488 21.1813 15.0011C23.6171 12.8535 26.7529 11.6685 30.0003 11.6685C33.2477 11.6685 36.3835 12.8535 38.8194 15.0011C41.2552 17.1488 42.8236 20.1115 43.2303 23.3333ZM15.0003 26.6667V33.3333H16.667V26.6667H15.0003ZM43.3337 26.6667V33.3333H45.0003V26.6667H43.3337ZM22.9337 36.3083L24.7003 33.4817C26.2888 34.4767 28.1259 35.003 30.0003 35C31.8747 35.003 33.7119 34.4767 35.3003 33.4817L37.067 36.3083C34.9491 37.6352 32.4996 38.3372 30.0003 38.3333C27.5011 38.3372 25.0516 37.6352 22.9337 36.3083Z" fill="white"/>
<defs>
<linearGradient id="paint0_linear_35_50" x1="30" y1="0" x2="30" y2="60" gradientUnits="userSpaceOnUse">
<stop stop-color="#1AC9FB"/>
<stop offset="1" stop-color="#407BFF"/>
</linearGradient>
</defs>
</svg>
