<?xml version="1.0" encoding="UTF-8"?>
<!DOCTYPE svg PUBLIC "-//W3C//DTD SVG 1.1//EN" "http://www.w3.org/Graphics/SVG/1.1/DTD/svg11.dtd">
<!-- Creator: CorelDRAW X5 -->
<svg xmlns="http://www.w3.org/2000/svg" xml:space="preserve" width="210mm" height="80.88mm" style="shape-rendering:geometricPrecision; text-rendering:geometricPrecision; image-rendering:optimizeQuality; fill-rule:evenodd; clip-rule:evenodd"
viewBox="0 0 21000 8088"
 xmlns:xlink="http://www.w3.org/1999/xlink">
 <defs>
  <style type="text/css">
   <![CDATA[
    .fil0 {fill:#009C3D;fill-rule:nonzero}
   ]]>
  </style>
 </defs>
 <g id="__x0023_Layer_x0020_1">
  <metadata id="CorelCorpID_0Corel-Layer"/>
  <path class="fil0" d="M15182 2916l0 -1920 394 0 0 1650c-107,54 -257,157 -394,270zm-684 578l0 0c121,-145 245,-292 394,-416l0 -2082 -394 0 0 2498zm-4562 1526l0 0c0,513 204,1000 575,1371 371,370 857,575 1371,575 217,0 441,-47 599,-124l0 -393c-184,77 -407,124 -599,124 -841,0 -1552,-710 -1552,-1551l0 -355c0,-841 711,-1552 1552,-1552 418,0 809,160 1100,451 291,291 451,682 451,1100l0 2301 394 0 0 -2376c-24,-502 -239,-972 -603,-1323 -365,-353 -842,-547 -1342,-547 -513,0 -1000,204 -1371,575 -371,371 -575,858 -575,1371l0 355zm5895 -942l0 0c177,-178 410,-280 637,-280 486,0 867,381 867,867l0 355c0,486 -381,867 -867,867 -235,0 -463,-129 -641,-363 -158,-207 -260,-486 -276,-738l-319 389c63,298 219,584 439,784 228,207 511,321 798,321 696,0 1262,-566 1262,-1261l0 -355c0,-329 -134,-644 -376,-886 -242,-242 -557,-376 -886,-376 -208,0 -539,75 -934,430l-1 1c-106,106 -354,354 -504,530 -254,277 -622,694 -937,1113l0 615c348,-448 549,-699 877,-1077 293,-343 657,-758 862,-939zm-9303 -743l0 0 0 -466c-356,-191 -745,-277 -1261,-277 -526,0 -1026,193 -1406,543 -381,351 -591,813 -591,1301l0 127c0,1017 816,1844 1819,1844 816,0 1151,-267 1236,-351l0 -1183 -1332 0 0 394 963 0 0 593 -4 1c-124,49 -381,153 -864,153 -383,0 -741,-149 -1008,-420 -269,-272 -416,-637 -416,-1030l0 -127c0,-786 734,-1450 1602,-1450 601,0 956,98 1261,348zm2870 463l0 0c150,0 276,25 377,74 49,-122 100,-223 173,-346 -107,-77 -362,-123 -550,-123 -719,0 -1261,542 -1261,1262l0 2301 394 0 0 -2301c0,-511 357,-867 867,-867zm-6812 639l0 0 0 127c0,683 259,1321 730,1795 470,473 1100,733 1773,733 541,0 1021,-122 1426,-363 334,-199 482,-400 495,-418l0 -2121 -2016 0 0 394 1622 0 0 1605 -2 2c-190,190 -641,509 -1525,509 -576,0 -1109,-220 -1502,-619 -392,-398 -607,-936 -607,-1515l0 -127c0,-547 247,-1092 676,-1496 439,-411 1011,-638 1610,-638 559,0 949,85 1261,274l0 -443c-325,-139 -715,-201 -1261,-201 -1453,0 -2681,1146 -2681,2503zm10557 2529l0 0 0 -2301c0,-707 -554,-1262 -1262,-1262 -330,0 -644,133 -886,376 -242,242 -375,557 -375,886l0 355c0,683 578,1261 1261,1261 188,0 443,-46 599,-175l0 -416c-153,123 -376,197 -599,197 -486,0 -867,-381 -867,-867l0 -355c0,-486 381,-867 867,-867 487,0 868,381 868,867l0 2301 394 0zm-3745 -3852l0 0c268,0 499,57 708,176 98,-123 198,-222 271,-296 -221,-169 -595,-274 -980,-274 -547,0 -1044,197 -1399,556 -352,356 -546,849 -546,1390l0 2301 394 0 0 -2301c0,-913 638,-1552 1552,-1552zm8442 181l0 0c-371,-371 -858,-575 -1371,-575 -375,0 -752,140 -960,278 -429,285 -782,596 -1416,1416l0 589c539,-702 1048,-1255 1435,-1559 255,-204 615,-331 941,-331 841,0 1552,710 1552,1552l0 355c0,415 -163,806 -461,1100 -295,291 -682,451 -1091,451 -691,0 -1299,-474 -1464,-1122l-278 337c202,679 935,1179 1742,1179 513,0 1000,-204 1371,-575 371,-371 575,-858 575,-1371l0 -355c0,-513 -204,-1000 -575,-1371z"/>
 </g>
</svg>
